<?xml version="1.0" ?>
<svg xmlns="http://www.w3.org/2000/svg" xmlns:ev="http://www.w3.org/2001/xml-events" xmlns:xlink="http://www.w3.org/1999/xlink" baseProfile="full" height="144" version="1.1" viewBox="0 0 101 144" width="101">
	<defs/>
	<path d="M 0.0,0.0 L 51.0,0.0" fill="none" stroke="black" stroke-width="1"/>
	<path d="M 52.0,0.0 L 101.0,0.0" fill="none" stroke="black" stroke-width="1"/>
	<path d="M 0.0,1.0 L 101.0,1.0" fill="none" stroke="black" stroke-width="1"/>
	<path d="M 0.0,2.0 L 101.0,2.0" fill="none" stroke="black" stroke-width="1"/>
	<path d="M 0.0,3.0 L 55.0,3.0" fill="none" stroke="black" stroke-width="1"/>
	<path d="M 57.0,3.0 L 101.0,3.0" fill="none" stroke="black" stroke-width="1"/>
	<path d="M 0.0,4.0 L 101.0,4.0" fill="none" stroke="black" stroke-width="1"/>
	<path d="M 0.0,5.0 L 101.0,5.0" fill="none" stroke="black" stroke-width="1"/>
	<path d="M 0.0,6.0 L 57.0,6.0" fill="none" stroke="black" stroke-width="1"/>
	<path d="M 59.0,6.0 L 101.0,6.0" fill="none" stroke="black" stroke-width="1"/>
	<path d="M 0.0,7.0 L 59.0,7.0" fill="none" stroke="black" stroke-width="1"/>
	<path d="M 61.0,7.0 L 101.0,7.0" fill="none" stroke="black" stroke-width="1"/>
	<path d="M 0.0,8.0 L 56.0,8.0" fill="none" stroke="black" stroke-width="1"/>
	<path d="M 59.0,8.0 L 60.0,8.0" fill="none" stroke="black" stroke-width="1"/>
	<path d="M 61.0,8.0 L 101.0,8.0" fill="none" stroke="black" stroke-width="1"/>
	<path d="M 0.0,9.0 L 101.0,9.0" fill="none" stroke="black" stroke-width="1"/>
	<path d="M 0.0,10.0 L 78.0,10.0" fill="none" stroke="black" stroke-width="1"/>
	<path d="M 79.0,10.0 L 101.0,10.0" fill="none" stroke="black" stroke-width="1"/>
	<path d="M 0.0,11.0 L 101.0,11.0" fill="none" stroke="black" stroke-width="1"/>
	<path d="M 0.0,12.0 L 101.0,12.0" fill="none" stroke="black" stroke-width="1"/>
	<path d="M 0.0,13.0 L 18.0,13.0" fill="none" stroke="black" stroke-width="1"/>
	<path d="M 19.0,13.0 L 60.0,13.0" fill="none" stroke="black" stroke-width="1"/>
	<path d="M 62.0,13.0 L 101.0,13.0" fill="none" stroke="black" stroke-width="1"/>
	<path d="M 0.0,14.0 L 101.0,14.0" fill="none" stroke="black" stroke-width="1"/>
	<path d="M 0.0,15.0 L 55.0,15.0" fill="none" stroke="black" stroke-width="1"/>
	<path d="M 57.0,15.0 L 101.0,15.0" fill="none" stroke="black" stroke-width="1"/>
	<path d="M 0.0,16.0 L 101.0,16.0" fill="none" stroke="black" stroke-width="1"/>
	<path d="M 0.0,17.0 L 101.0,17.0" fill="none" stroke="black" stroke-width="1"/>
	<path d="M 0.0,18.0 L 101.0,18.0" fill="none" stroke="black" stroke-width="1"/>
	<path d="M 0.0,19.0 L 101.0,19.0" fill="none" stroke="black" stroke-width="1"/>
	<path d="M 0.0,20.0 L 59.0,20.0" fill="none" stroke="black" stroke-width="1"/>
	<path d="M 60.0,20.0 L 61.0,20.0" fill="none" stroke="black" stroke-width="1"/>
	<path d="M 62.0,20.0 L 93.0,20.0" fill="none" stroke="black" stroke-width="1"/>
	<path d="M 94.0,20.0 L 101.0,20.0" fill="none" stroke="black" stroke-width="1"/>
	<path d="M 0.0,21.0 L 64.0,21.0" fill="none" stroke="black" stroke-width="1"/>
	<path d="M 65.0,21.0 L 74.0,21.0" fill="none" stroke="black" stroke-width="1"/>
	<path d="M 75.0,21.0 L 101.0,21.0" fill="none" stroke="black" stroke-width="1"/>
	<path d="M 0.0,22.0 L 63.0,22.0" fill="none" stroke="black" stroke-width="1"/>
	<path d="M 64.0,22.0 L 101.0,22.0" fill="none" stroke="black" stroke-width="1"/>
	<path d="M 0.0,23.0 L 63.0,23.0" fill="none" stroke="black" stroke-width="1"/>
	<path d="M 65.0,23.0 L 74.0,23.0" fill="none" stroke="black" stroke-width="1"/>
	<path d="M 75.0,23.0 L 77.0,23.0" fill="none" stroke="black" stroke-width="1"/>
	<path d="M 78.0,23.0 L 101.0,23.0" fill="none" stroke="black" stroke-width="1"/>
	<path d="M 0.0,24.0 L 77.0,24.0" fill="none" stroke="black" stroke-width="1"/>
	<path d="M 78.0,24.0 L 95.0,24.0" fill="none" stroke="black" stroke-width="1"/>
	<path d="M 96.0,24.0 L 101.0,24.0" fill="none" stroke="black" stroke-width="1"/>
	<path d="M 0.0,25.0 L 72.0,25.0" fill="none" stroke="black" stroke-width="1"/>
	<path d="M 73.0,25.0 L 76.0,25.0" fill="none" stroke="black" stroke-width="1"/>
	<path d="M 77.0,25.0 L 101.0,25.0" fill="none" stroke="black" stroke-width="1"/>
	<path d="M 0.0,26.0 L 71.0,26.0" fill="none" stroke="black" stroke-width="1"/>
	<path d="M 72.0,26.0 L 73.0,26.0" fill="none" stroke="black" stroke-width="1"/>
	<path d="M 75.0,26.0 L 76.0,26.0" fill="none" stroke="black" stroke-width="1"/>
	<path d="M 77.0,26.0 L 101.0,26.0" fill="none" stroke="black" stroke-width="1"/>
	<path d="M 0.0,27.0 L 73.0,27.0" fill="none" stroke="black" stroke-width="1"/>
	<path d="M 75.0,27.0 L 77.0,27.0" fill="none" stroke="black" stroke-width="1"/>
	<path d="M 78.0,27.0 L 101.0,27.0" fill="none" stroke="black" stroke-width="1"/>
	<path d="M 0.0,28.0 L 73.0,28.0" fill="none" stroke="black" stroke-width="1"/>
	<path d="M 74.0,28.0 L 77.0,28.0" fill="none" stroke="black" stroke-width="1"/>
	<path d="M 78.0,28.0 L 101.0,28.0" fill="none" stroke="black" stroke-width="1"/>
	<path d="M 0.0,29.0 L 73.0,29.0" fill="none" stroke="black" stroke-width="1"/>
	<path d="M 74.0,29.0 L 75.0,29.0" fill="none" stroke="black" stroke-width="1"/>
	<path d="M 78.0,29.0 L 101.0,29.0" fill="none" stroke="black" stroke-width="1"/>
	<path d="M 0.0,30.0 L 73.0,30.0" fill="none" stroke="black" stroke-width="1"/>
	<path d="M 74.0,30.0 L 101.0,30.0" fill="none" stroke="black" stroke-width="1"/>
	<path d="M 0.0,31.0 L 74.0,31.0" fill="none" stroke="black" stroke-width="1"/>
	<path d="M 75.0,31.0 L 101.0,31.0" fill="none" stroke="black" stroke-width="1"/>
	<path d="M 0.0,32.0 L 79.0,32.0" fill="none" stroke="black" stroke-width="1"/>
	<path d="M 80.0,32.0 L 101.0,32.0" fill="none" stroke="black" stroke-width="1"/>
	<path d="M 0.0,33.0 L 83.0,33.0" fill="none" stroke="black" stroke-width="1"/>
	<path d="M 84.0,33.0 L 101.0,33.0" fill="none" stroke="black" stroke-width="1"/>
	<path d="M 0.0,34.0 L 101.0,34.0" fill="none" stroke="black" stroke-width="1"/>
	<path d="M 0.0,35.0 L 101.0,35.0" fill="none" stroke="black" stroke-width="1"/>
	<path d="M 0.0,36.0 L 101.0,36.0" fill="none" stroke="black" stroke-width="1"/>
	<path d="M 0.0,37.0 L 101.0,37.0" fill="none" stroke="black" stroke-width="1"/>
	<path d="M 0.0,38.0 L 101.0,38.0" fill="none" stroke="black" stroke-width="1"/>
	<path d="M 0.0,39.0 L 101.0,39.0" fill="none" stroke="black" stroke-width="1"/>
	<path d="M 0.0,40.0 L 101.0,40.0" fill="none" stroke="black" stroke-width="1"/>
	<path d="M 0.0,41.0 L 101.0,41.0" fill="none" stroke="black" stroke-width="1"/>
	<path d="M 0.0,42.0 L 101.0,42.0" fill="none" stroke="black" stroke-width="1"/>
	<path d="M 0.0,43.0 L 101.0,43.0" fill="none" stroke="black" stroke-width="1"/>
	<path d="M 0.0,44.0 L 74.0,44.0" fill="none" stroke="black" stroke-width="1"/>
	<path d="M 75.0,44.0 L 101.0,44.0" fill="none" stroke="black" stroke-width="1"/>
	<path d="M 0.0,45.0 L 80.0,45.0" fill="none" stroke="black" stroke-width="1"/>
	<path d="M 81.0,45.0 L 101.0,45.0" fill="none" stroke="black" stroke-width="1"/>
	<path d="M 0.0,46.0 L 81.0,46.0" fill="none" stroke="black" stroke-width="1"/>
	<path d="M 83.0,46.0 L 101.0,46.0" fill="none" stroke="black" stroke-width="1"/>
	<path d="M 0.0,47.0 L 79.0,47.0" fill="none" stroke="black" stroke-width="1"/>
	<path d="M 83.0,47.0 L 101.0,47.0" fill="none" stroke="black" stroke-width="1"/>
	<path d="M 0.0,48.0 L 79.0,48.0" fill="none" stroke="black" stroke-width="1"/>
	<path d="M 83.0,48.0 L 101.0,48.0" fill="none" stroke="black" stroke-width="1"/>
	<path d="M 0.0,49.0 L 78.0,49.0" fill="none" stroke="black" stroke-width="1"/>
	<path d="M 83.0,49.0 L 101.0,49.0" fill="none" stroke="black" stroke-width="1"/>
	<path d="M 0.0,50.0 L 77.0,50.0" fill="none" stroke="black" stroke-width="1"/>
	<path d="M 83.0,50.0 L 101.0,50.0" fill="none" stroke="black" stroke-width="1"/>
	<path d="M 0.0,51.0 L 76.0,51.0" fill="none" stroke="black" stroke-width="1"/>
	<path d="M 84.0,51.0 L 101.0,51.0" fill="none" stroke="black" stroke-width="1"/>
	<path d="M 0.0,52.0 L 76.0,52.0" fill="none" stroke="black" stroke-width="1"/>
	<path d="M 83.0,52.0 L 84.0,52.0" fill="none" stroke="black" stroke-width="1"/>
	<path d="M 85.0,52.0 L 101.0,52.0" fill="none" stroke="black" stroke-width="1"/>
	<path d="M 0.0,53.0 L 75.0,53.0" fill="none" stroke="black" stroke-width="1"/>
	<path d="M 84.0,53.0 L 101.0,53.0" fill="none" stroke="black" stroke-width="1"/>
	<path d="M 0.0,54.0 L 74.0,54.0" fill="none" stroke="black" stroke-width="1"/>
	<path d="M 81.0,54.0 L 82.0,54.0" fill="none" stroke="black" stroke-width="1"/>
	<path d="M 84.0,54.0 L 101.0,54.0" fill="none" stroke="black" stroke-width="1"/>
	<path d="M 0.0,55.0 L 74.0,55.0" fill="none" stroke="black" stroke-width="1"/>
	<path d="M 81.0,55.0 L 82.0,55.0" fill="none" stroke="black" stroke-width="1"/>
	<path d="M 85.0,55.0 L 101.0,55.0" fill="none" stroke="black" stroke-width="1"/>
	<path d="M 0.0,56.0 L 39.0,56.0" fill="none" stroke="black" stroke-width="1"/>
	<path d="M 42.0,56.0 L 52.0,56.0" fill="none" stroke="black" stroke-width="1"/>
	<path d="M 53.0,56.0 L 71.0,56.0" fill="none" stroke="black" stroke-width="1"/>
	<path d="M 85.0,56.0 L 101.0,56.0" fill="none" stroke="black" stroke-width="1"/>
	<path d="M 0.0,57.0 L 35.0,57.0" fill="none" stroke="black" stroke-width="1"/>
	<path d="M 54.0,57.0 L 69.0,57.0" fill="none" stroke="black" stroke-width="1"/>
	<path d="M 83.0,57.0 L 84.0,57.0" fill="none" stroke="black" stroke-width="1"/>
	<path d="M 85.0,57.0 L 95.0,57.0" fill="none" stroke="black" stroke-width="1"/>
	<path d="M 96.0,57.0 L 101.0,57.0" fill="none" stroke="black" stroke-width="1"/>
	<path d="M 0.0,58.0 L 32.0,58.0" fill="none" stroke="black" stroke-width="1"/>
	<path d="M 56.0,58.0 L 68.0,58.0" fill="none" stroke="black" stroke-width="1"/>
	<path d="M 84.0,58.0 L 101.0,58.0" fill="none" stroke="black" stroke-width="1"/>
	<path d="M 0.0,59.0 L 24.0,59.0" fill="none" stroke="black" stroke-width="1"/>
	<path d="M 25.0,59.0 L 27.0,59.0" fill="none" stroke="black" stroke-width="1"/>
	<path d="M 59.0,59.0 L 60.0,59.0" fill="none" stroke="black" stroke-width="1"/>
	<path d="M 62.0,59.0 L 69.0,59.0" fill="none" stroke="black" stroke-width="1"/>
	<path d="M 84.0,59.0 L 101.0,59.0" fill="none" stroke="black" stroke-width="1"/>
	<path d="M 0.0,60.0 L 21.0,60.0" fill="none" stroke="black" stroke-width="1"/>
	<path d="M 62.0,60.0 L 67.0,60.0" fill="none" stroke="black" stroke-width="1"/>
	<path d="M 84.0,60.0 L 101.0,60.0" fill="none" stroke="black" stroke-width="1"/>
	<path d="M 0.0,61.0 L 20.0,61.0" fill="none" stroke="black" stroke-width="1"/>
	<path d="M 61.0,61.0 L 62.0,61.0" fill="none" stroke="black" stroke-width="1"/>
	<path d="M 63.0,61.0 L 72.0,61.0" fill="none" stroke="black" stroke-width="1"/>
	<path d="M 84.0,61.0 L 101.0,61.0" fill="none" stroke="black" stroke-width="1"/>
	<path d="M 0.0,62.0 L 20.0,62.0" fill="none" stroke="black" stroke-width="1"/>
	<path d="M 58.0,62.0 L 59.0,62.0" fill="none" stroke="black" stroke-width="1"/>
	<path d="M 62.0,62.0 L 75.0,62.0" fill="none" stroke="black" stroke-width="1"/>
	<path d="M 76.0,62.0 L 77.0,62.0" fill="none" stroke="black" stroke-width="1"/>
	<path d="M 85.0,62.0 L 101.0,62.0" fill="none" stroke="black" stroke-width="1"/>
	<path d="M 0.0,63.0 L 19.0,63.0" fill="none" stroke="black" stroke-width="1"/>
	<path d="M 60.0,63.0 L 77.0,63.0" fill="none" stroke="black" stroke-width="1"/>
	<path d="M 85.0,63.0 L 101.0,63.0" fill="none" stroke="black" stroke-width="1"/>
	<path d="M 0.0,64.0 L 19.0,64.0" fill="none" stroke="black" stroke-width="1"/>
	<path d="M 22.0,64.0 L 23.0,64.0" fill="none" stroke="black" stroke-width="1"/>
	<path d="M 24.0,64.0 L 25.0,64.0" fill="none" stroke="black" stroke-width="1"/>
	<path d="M 58.0,64.0 L 79.0,64.0" fill="none" stroke="black" stroke-width="1"/>
	<path d="M 85.0,64.0 L 95.0,64.0" fill="none" stroke="black" stroke-width="1"/>
	<path d="M 97.0,64.0 L 101.0,64.0" fill="none" stroke="black" stroke-width="1"/>
	<path d="M 0.0,65.0 L 18.0,65.0" fill="none" stroke="black" stroke-width="1"/>
	<path d="M 20.0,65.0 L 27.0,65.0" fill="none" stroke="black" stroke-width="1"/>
	<path d="M 28.0,65.0 L 30.0,65.0" fill="none" stroke="black" stroke-width="1"/>
	<path d="M 57.0,65.0 L 81.0,65.0" fill="none" stroke="black" stroke-width="1"/>
	<path d="M 82.0,65.0 L 83.0,65.0" fill="none" stroke="black" stroke-width="1"/>
	<path d="M 86.0,65.0 L 95.0,65.0" fill="none" stroke="black" stroke-width="1"/>
	<path d="M 99.0,65.0 L 101.0,65.0" fill="none" stroke="black" stroke-width="1"/>
	<path d="M 0.0,66.0 L 33.0,66.0" fill="none" stroke="black" stroke-width="1"/>
	<path d="M 34.0,66.0 L 35.0,66.0" fill="none" stroke="black" stroke-width="1"/>
	<path d="M 53.0,66.0 L 83.0,66.0" fill="none" stroke="black" stroke-width="1"/>
	<path d="M 86.0,66.0 L 95.0,66.0" fill="none" stroke="black" stroke-width="1"/>
	<path d="M 97.0,66.0 L 98.0,66.0" fill="none" stroke="black" stroke-width="1"/>
	<path d="M 99.0,66.0 L 101.0,66.0" fill="none" stroke="black" stroke-width="1"/>
	<path d="M 0.0,67.0 L 40.0,67.0" fill="none" stroke="black" stroke-width="1"/>
	<path d="M 54.0,67.0 L 82.0,67.0" fill="none" stroke="black" stroke-width="1"/>
	<path d="M 86.0,67.0 L 98.0,67.0" fill="none" stroke="black" stroke-width="1"/>
	<path d="M 99.0,67.0 L 101.0,67.0" fill="none" stroke="black" stroke-width="1"/>
	<path d="M 0.0,68.0 L 40.0,68.0" fill="none" stroke="black" stroke-width="1"/>
	<path d="M 50.0,68.0 L 83.0,68.0" fill="none" stroke="black" stroke-width="1"/>
	<path d="M 87.0,68.0 L 99.0,68.0" fill="none" stroke="black" stroke-width="1"/>
	<path d="M 100.0,68.0 L 101.0,68.0" fill="none" stroke="black" stroke-width="1"/>
	<path d="M 0.0,69.0 L 41.0,69.0" fill="none" stroke="black" stroke-width="1"/>
	<path d="M 45.0,69.0 L 46.0,69.0" fill="none" stroke="black" stroke-width="1"/>
	<path d="M 48.0,69.0 L 49.0,69.0" fill="none" stroke="black" stroke-width="1"/>
	<path d="M 50.0,69.0 L 84.0,69.0" fill="none" stroke="black" stroke-width="1"/>
	<path d="M 87.0,69.0 L 99.0,69.0" fill="none" stroke="black" stroke-width="1"/>
	<path d="M 100.0,69.0 L 101.0,69.0" fill="none" stroke="black" stroke-width="1"/>
	<path d="M 0.0,70.0 L 45.0,70.0" fill="none" stroke="black" stroke-width="1"/>
	<path d="M 50.0,70.0 L 84.0,70.0" fill="none" stroke="black" stroke-width="1"/>
	<path d="M 87.0,70.0 L 99.0,70.0" fill="none" stroke="black" stroke-width="1"/>
	<path d="M 100.0,70.0 L 101.0,70.0" fill="none" stroke="black" stroke-width="1"/>
	<path d="M 0.0,71.0 L 45.0,71.0" fill="none" stroke="black" stroke-width="1"/>
	<path d="M 47.0,71.0 L 48.0,71.0" fill="none" stroke="black" stroke-width="1"/>
	<path d="M 49.0,71.0 L 85.0,71.0" fill="none" stroke="black" stroke-width="1"/>
	<path d="M 87.0,71.0 L 101.0,71.0" fill="none" stroke="black" stroke-width="1"/>
	<path d="M 0.0,72.0 L 45.0,72.0" fill="none" stroke="black" stroke-width="1"/>
	<path d="M 48.0,72.0 L 85.0,72.0" fill="none" stroke="black" stroke-width="1"/>
	<path d="M 88.0,72.0 L 101.0,72.0" fill="none" stroke="black" stroke-width="1"/>
	<path d="M 0.0,73.0 L 44.0,73.0" fill="none" stroke="black" stroke-width="1"/>
	<path d="M 50.0,73.0 L 85.0,73.0" fill="none" stroke="black" stroke-width="1"/>
	<path d="M 88.0,73.0 L 100.0,73.0" fill="none" stroke="black" stroke-width="1"/>
	<path d="M 0.0,74.0 L 44.0,74.0" fill="none" stroke="black" stroke-width="1"/>
	<path d="M 50.0,74.0 L 85.0,74.0" fill="none" stroke="black" stroke-width="1"/>
	<path d="M 88.0,74.0 L 95.0,74.0" fill="none" stroke="black" stroke-width="1"/>
	<path d="M 96.0,74.0 L 100.0,74.0" fill="none" stroke="black" stroke-width="1"/>
	<path d="M 0.0,75.0 L 29.0,75.0" fill="none" stroke="black" stroke-width="1"/>
	<path d="M 30.0,75.0 L 31.0,75.0" fill="none" stroke="black" stroke-width="1"/>
	<path d="M 32.0,75.0 L 44.0,75.0" fill="none" stroke="black" stroke-width="1"/>
	<path d="M 50.0,75.0 L 85.0,75.0" fill="none" stroke="black" stroke-width="1"/>
	<path d="M 88.0,75.0 L 96.0,75.0" fill="none" stroke="black" stroke-width="1"/>
	<path d="M 97.0,75.0 L 100.0,75.0" fill="none" stroke="black" stroke-width="1"/>
	<path d="M 0.0,76.0 L 26.0,76.0" fill="none" stroke="black" stroke-width="1"/>
	<path d="M 27.0,76.0 L 45.0,76.0" fill="none" stroke="black" stroke-width="1"/>
	<path d="M 50.0,76.0 L 63.0,76.0" fill="none" stroke="black" stroke-width="1"/>
	<path d="M 64.0,76.0 L 85.0,76.0" fill="none" stroke="black" stroke-width="1"/>
	<path d="M 88.0,76.0 L 96.0,76.0" fill="none" stroke="black" stroke-width="1"/>
	<path d="M 97.0,76.0 L 100.0,76.0" fill="none" stroke="black" stroke-width="1"/>
	<path d="M 0.0,77.0 L 26.0,77.0" fill="none" stroke="black" stroke-width="1"/>
	<path d="M 28.0,77.0 L 35.0,77.0" fill="none" stroke="black" stroke-width="1"/>
	<path d="M 36.0,77.0 L 45.0,77.0" fill="none" stroke="black" stroke-width="1"/>
	<path d="M 49.0,77.0 L 64.0,77.0" fill="none" stroke="black" stroke-width="1"/>
	<path d="M 65.0,77.0 L 85.0,77.0" fill="none" stroke="black" stroke-width="1"/>
	<path d="M 88.0,77.0 L 101.0,77.0" fill="none" stroke="black" stroke-width="1"/>
	<path d="M 0.0,78.0 L 26.0,78.0" fill="none" stroke="black" stroke-width="1"/>
	<path d="M 28.0,78.0 L 34.0,78.0" fill="none" stroke="black" stroke-width="1"/>
	<path d="M 36.0,78.0 L 45.0,78.0" fill="none" stroke="black" stroke-width="1"/>
	<path d="M 49.0,78.0 L 84.0,78.0" fill="none" stroke="black" stroke-width="1"/>
	<path d="M 89.0,78.0 L 97.0,78.0" fill="none" stroke="black" stroke-width="1"/>
	<path d="M 98.0,78.0 L 101.0,78.0" fill="none" stroke="black" stroke-width="1"/>
	<path d="M 0.0,79.0 L 25.0,79.0" fill="none" stroke="black" stroke-width="1"/>
	<path d="M 29.0,79.0 L 33.0,79.0" fill="none" stroke="black" stroke-width="1"/>
	<path d="M 36.0,79.0 L 39.0,79.0" fill="none" stroke="black" stroke-width="1"/>
	<path d="M 41.0,79.0 L 45.0,79.0" fill="none" stroke="black" stroke-width="1"/>
	<path d="M 50.0,79.0 L 79.0,79.0" fill="none" stroke="black" stroke-width="1"/>
	<path d="M 82.0,79.0 L 83.0,79.0" fill="none" stroke="black" stroke-width="1"/>
	<path d="M 89.0,79.0 L 97.0,79.0" fill="none" stroke="black" stroke-width="1"/>
	<path d="M 98.0,79.0 L 101.0,79.0" fill="none" stroke="black" stroke-width="1"/>
	<path d="M 0.0,80.0 L 25.0,80.0" fill="none" stroke="black" stroke-width="1"/>
	<path d="M 34.0,80.0 L 38.0,80.0" fill="none" stroke="black" stroke-width="1"/>
	<path d="M 41.0,80.0 L 45.0,80.0" fill="none" stroke="black" stroke-width="1"/>
	<path d="M 49.0,80.0 L 78.0,80.0" fill="none" stroke="black" stroke-width="1"/>
	<path d="M 89.0,80.0 L 92.0,80.0" fill="none" stroke="black" stroke-width="1"/>
	<path d="M 93.0,80.0 L 97.0,80.0" fill="none" stroke="black" stroke-width="1"/>
	<path d="M 98.0,80.0 L 99.0,80.0" fill="none" stroke="black" stroke-width="1"/>
	<path d="M 100.0,80.0 L 101.0,80.0" fill="none" stroke="black" stroke-width="1"/>
	<path d="M 0.0,81.0 L 23.0,81.0" fill="none" stroke="black" stroke-width="1"/>
	<path d="M 24.0,81.0 L 27.0,81.0" fill="none" stroke="black" stroke-width="1"/>
	<path d="M 28.0,81.0 L 29.0,81.0" fill="none" stroke="black" stroke-width="1"/>
	<path d="M 32.0,81.0 L 37.0,81.0" fill="none" stroke="black" stroke-width="1"/>
	<path d="M 42.0,81.0 L 45.0,81.0" fill="none" stroke="black" stroke-width="1"/>
	<path d="M 49.0,81.0 L 77.0,81.0" fill="none" stroke="black" stroke-width="1"/>
	<path d="M 89.0,81.0 L 96.0,81.0" fill="none" stroke="black" stroke-width="1"/>
	<path d="M 98.0,81.0 L 101.0,81.0" fill="none" stroke="black" stroke-width="1"/>
	<path d="M 0.0,82.0 L 19.0,82.0" fill="none" stroke="black" stroke-width="1"/>
	<path d="M 28.0,82.0 L 29.0,82.0" fill="none" stroke="black" stroke-width="1"/>
	<path d="M 30.0,82.0 L 36.0,82.0" fill="none" stroke="black" stroke-width="1"/>
	<path d="M 38.0,82.0 L 39.0,82.0" fill="none" stroke="black" stroke-width="1"/>
	<path d="M 42.0,82.0 L 45.0,82.0" fill="none" stroke="black" stroke-width="1"/>
	<path d="M 50.0,82.0 L 75.0,82.0" fill="none" stroke="black" stroke-width="1"/>
	<path d="M 90.0,82.0 L 97.0,82.0" fill="none" stroke="black" stroke-width="1"/>
	<path d="M 98.0,82.0 L 101.0,82.0" fill="none" stroke="black" stroke-width="1"/>
	<path d="M 0.0,83.0 L 19.0,83.0" fill="none" stroke="black" stroke-width="1"/>
	<path d="M 29.0,83.0 L 33.0,83.0" fill="none" stroke="black" stroke-width="1"/>
	<path d="M 34.0,83.0 L 35.0,83.0" fill="none" stroke="black" stroke-width="1"/>
	<path d="M 41.0,83.0 L 45.0,83.0" fill="none" stroke="black" stroke-width="1"/>
	<path d="M 49.0,83.0 L 66.0,83.0" fill="none" stroke="black" stroke-width="1"/>
	<path d="M 68.0,83.0 L 75.0,83.0" fill="none" stroke="black" stroke-width="1"/>
	<path d="M 92.0,83.0 L 101.0,83.0" fill="none" stroke="black" stroke-width="1"/>
	<path d="M 0.0,84.0 L 7.0,84.0" fill="none" stroke="black" stroke-width="1"/>
	<path d="M 8.0,84.0 L 19.0,84.0" fill="none" stroke="black" stroke-width="1"/>
	<path d="M 41.0,84.0 L 45.0,84.0" fill="none" stroke="black" stroke-width="1"/>
	<path d="M 50.0,84.0 L 65.0,84.0" fill="none" stroke="black" stroke-width="1"/>
	<path d="M 70.0,84.0 L 74.0,84.0" fill="none" stroke="black" stroke-width="1"/>
	<path d="M 87.0,84.0 L 88.0,84.0" fill="none" stroke="black" stroke-width="1"/>
	<path d="M 90.0,84.0 L 91.0,84.0" fill="none" stroke="black" stroke-width="1"/>
	<path d="M 93.0,84.0 L 101.0,84.0" fill="none" stroke="black" stroke-width="1"/>
	<path d="M 0.0,85.0 L 7.0,85.0" fill="none" stroke="black" stroke-width="1"/>
	<path d="M 9.0,85.0 L 19.0,85.0" fill="none" stroke="black" stroke-width="1"/>
	<path d="M 41.0,85.0 L 45.0,85.0" fill="none" stroke="black" stroke-width="1"/>
	<path d="M 50.0,85.0 L 63.0,85.0" fill="none" stroke="black" stroke-width="1"/>
	<path d="M 64.0,85.0 L 69.0,85.0" fill="none" stroke="black" stroke-width="1"/>
	<path d="M 70.0,85.0 L 74.0,85.0" fill="none" stroke="black" stroke-width="1"/>
	<path d="M 88.0,85.0 L 89.0,85.0" fill="none" stroke="black" stroke-width="1"/>
	<path d="M 90.0,85.0 L 91.0,85.0" fill="none" stroke="black" stroke-width="1"/>
	<path d="M 92.0,85.0 L 95.0,85.0" fill="none" stroke="black" stroke-width="1"/>
	<path d="M 96.0,85.0 L 101.0,85.0" fill="none" stroke="black" stroke-width="1"/>
	<path d="M 0.0,86.0 L 7.0,86.0" fill="none" stroke="black" stroke-width="1"/>
	<path d="M 9.0,86.0 L 19.0,86.0" fill="none" stroke="black" stroke-width="1"/>
	<path d="M 40.0,86.0 L 47.0,86.0" fill="none" stroke="black" stroke-width="1"/>
	<path d="M 50.0,86.0 L 69.0,86.0" fill="none" stroke="black" stroke-width="1"/>
	<path d="M 72.0,86.0 L 76.0,86.0" fill="none" stroke="black" stroke-width="1"/>
	<path d="M 77.0,86.0 L 78.0,86.0" fill="none" stroke="black" stroke-width="1"/>
	<path d="M 88.0,86.0 L 93.0,86.0" fill="none" stroke="black" stroke-width="1"/>
	<path d="M 96.0,86.0 L 101.0,86.0" fill="none" stroke="black" stroke-width="1"/>
	<path d="M 0.0,87.0 L 18.0,87.0" fill="none" stroke="black" stroke-width="1"/>
	<path d="M 41.0,87.0 L 45.0,87.0" fill="none" stroke="black" stroke-width="1"/>
	<path d="M 50.0,87.0 L 68.0,87.0" fill="none" stroke="black" stroke-width="1"/>
	<path d="M 70.0,87.0 L 80.0,87.0" fill="none" stroke="black" stroke-width="1"/>
	<path d="M 83.0,87.0 L 84.0,87.0" fill="none" stroke="black" stroke-width="1"/>
	<path d="M 85.0,87.0 L 86.0,87.0" fill="none" stroke="black" stroke-width="1"/>
	<path d="M 88.0,87.0 L 89.0,87.0" fill="none" stroke="black" stroke-width="1"/>
	<path d="M 93.0,87.0 L 101.0,87.0" fill="none" stroke="black" stroke-width="1"/>
	<path d="M 0.0,88.0 L 11.0,88.0" fill="none" stroke="black" stroke-width="1"/>
	<path d="M 12.0,88.0 L 18.0,88.0" fill="none" stroke="black" stroke-width="1"/>
	<path d="M 41.0,88.0 L 46.0,88.0" fill="none" stroke="black" stroke-width="1"/>
	<path d="M 50.0,88.0 L 68.0,88.0" fill="none" stroke="black" stroke-width="1"/>
	<path d="M 69.0,88.0 L 73.0,88.0" fill="none" stroke="black" stroke-width="1"/>
	<path d="M 74.0,88.0 L 85.0,88.0" fill="none" stroke="black" stroke-width="1"/>
	<path d="M 88.0,88.0 L 90.0,88.0" fill="none" stroke="black" stroke-width="1"/>
	<path d="M 93.0,88.0 L 101.0,88.0" fill="none" stroke="black" stroke-width="1"/>
	<path d="M 0.0,89.0 L 11.0,89.0" fill="none" stroke="black" stroke-width="1"/>
	<path d="M 12.0,89.0 L 19.0,89.0" fill="none" stroke="black" stroke-width="1"/>
	<path d="M 41.0,89.0 L 44.0,89.0" fill="none" stroke="black" stroke-width="1"/>
	<path d="M 50.0,89.0 L 68.0,89.0" fill="none" stroke="black" stroke-width="1"/>
	<path d="M 69.0,89.0 L 70.0,89.0" fill="none" stroke="black" stroke-width="1"/>
	<path d="M 71.0,89.0 L 85.0,89.0" fill="none" stroke="black" stroke-width="1"/>
	<path d="M 88.0,89.0 L 90.0,89.0" fill="none" stroke="black" stroke-width="1"/>
	<path d="M 93.0,89.0 L 95.0,89.0" fill="none" stroke="black" stroke-width="1"/>
	<path d="M 96.0,89.0 L 101.0,89.0" fill="none" stroke="black" stroke-width="1"/>
	<path d="M 0.0,90.0 L 19.0,90.0" fill="none" stroke="black" stroke-width="1"/>
	<path d="M 42.0,90.0 L 45.0,90.0" fill="none" stroke="black" stroke-width="1"/>
	<path d="M 50.0,90.0 L 84.0,90.0" fill="none" stroke="black" stroke-width="1"/>
	<path d="M 88.0,90.0 L 89.0,90.0" fill="none" stroke="black" stroke-width="1"/>
	<path d="M 93.0,90.0 L 94.0,90.0" fill="none" stroke="black" stroke-width="1"/>
	<path d="M 95.0,90.0 L 101.0,90.0" fill="none" stroke="black" stroke-width="1"/>
	<path d="M 0.0,91.0 L 18.0,91.0" fill="none" stroke="black" stroke-width="1"/>
	<path d="M 42.0,91.0 L 44.0,91.0" fill="none" stroke="black" stroke-width="1"/>
	<path d="M 50.0,91.0 L 86.0,91.0" fill="none" stroke="black" stroke-width="1"/>
	<path d="M 89.0,91.0 L 91.0,91.0" fill="none" stroke="black" stroke-width="1"/>
	<path d="M 95.0,91.0 L 101.0,91.0" fill="none" stroke="black" stroke-width="1"/>
	<path d="M 0.0,92.0 L 18.0,92.0" fill="none" stroke="black" stroke-width="1"/>
	<path d="M 41.0,92.0 L 44.0,92.0" fill="none" stroke="black" stroke-width="1"/>
	<path d="M 50.0,92.0 L 86.0,92.0" fill="none" stroke="black" stroke-width="1"/>
	<path d="M 87.0,92.0 L 91.0,92.0" fill="none" stroke="black" stroke-width="1"/>
	<path d="M 95.0,92.0 L 101.0,92.0" fill="none" stroke="black" stroke-width="1"/>
	<path d="M 0.0,93.0 L 19.0,93.0" fill="none" stroke="black" stroke-width="1"/>
	<path d="M 40.0,93.0 L 44.0,93.0" fill="none" stroke="black" stroke-width="1"/>
	<path d="M 51.0,93.0 L 85.0,93.0" fill="none" stroke="black" stroke-width="1"/>
	<path d="M 87.0,93.0 L 91.0,93.0" fill="none" stroke="black" stroke-width="1"/>
	<path d="M 95.0,93.0 L 101.0,93.0" fill="none" stroke="black" stroke-width="1"/>
	<path d="M 0.0,94.0 L 21.0,94.0" fill="none" stroke="black" stroke-width="1"/>
	<path d="M 40.0,94.0 L 43.0,94.0" fill="none" stroke="black" stroke-width="1"/>
	<path d="M 51.0,94.0 L 85.0,94.0" fill="none" stroke="black" stroke-width="1"/>
	<path d="M 87.0,94.0 L 101.0,94.0" fill="none" stroke="black" stroke-width="1"/>
	<path d="M 0.0,95.0 L 21.0,95.0" fill="none" stroke="black" stroke-width="1"/>
	<path d="M 40.0,95.0 L 43.0,95.0" fill="none" stroke="black" stroke-width="1"/>
	<path d="M 54.0,95.0 L 85.0,95.0" fill="none" stroke="black" stroke-width="1"/>
	<path d="M 86.0,95.0 L 101.0,95.0" fill="none" stroke="black" stroke-width="1"/>
	<path d="M 0.0,96.0 L 20.0,96.0" fill="none" stroke="black" stroke-width="1"/>
	<path d="M 21.0,96.0 L 22.0,96.0" fill="none" stroke="black" stroke-width="1"/>
	<path d="M 40.0,96.0 L 43.0,96.0" fill="none" stroke="black" stroke-width="1"/>
	<path d="M 54.0,96.0 L 85.0,96.0" fill="none" stroke="black" stroke-width="1"/>
	<path d="M 86.0,96.0 L 101.0,96.0" fill="none" stroke="black" stroke-width="1"/>
	<path d="M 0.0,97.0 L 20.0,97.0" fill="none" stroke="black" stroke-width="1"/>
	<path d="M 23.0,97.0 L 24.0,97.0" fill="none" stroke="black" stroke-width="1"/>
	<path d="M 39.0,97.0 L 43.0,97.0" fill="none" stroke="black" stroke-width="1"/>
	<path d="M 53.0,97.0 L 85.0,97.0" fill="none" stroke="black" stroke-width="1"/>
	<path d="M 86.0,97.0 L 93.0,97.0" fill="none" stroke="black" stroke-width="1"/>
	<path d="M 94.0,97.0 L 101.0,97.0" fill="none" stroke="black" stroke-width="1"/>
	<path d="M 0.0,98.0 L 21.0,98.0" fill="none" stroke="black" stroke-width="1"/>
	<path d="M 41.0,98.0 L 43.0,98.0" fill="none" stroke="black" stroke-width="1"/>
	<path d="M 52.0,98.0 L 85.0,98.0" fill="none" stroke="black" stroke-width="1"/>
	<path d="M 86.0,98.0 L 101.0,98.0" fill="none" stroke="black" stroke-width="1"/>
	<path d="M 0.0,99.0 L 21.0,99.0" fill="none" stroke="black" stroke-width="1"/>
	<path d="M 22.0,99.0 L 23.0,99.0" fill="none" stroke="black" stroke-width="1"/>
	<path d="M 38.0,99.0 L 44.0,99.0" fill="none" stroke="black" stroke-width="1"/>
	<path d="M 51.0,99.0 L 85.0,99.0" fill="none" stroke="black" stroke-width="1"/>
	<path d="M 86.0,99.0 L 101.0,99.0" fill="none" stroke="black" stroke-width="1"/>
	<path d="M 0.0,100.0 L 21.0,100.0" fill="none" stroke="black" stroke-width="1"/>
	<path d="M 38.0,100.0 L 45.0,100.0" fill="none" stroke="black" stroke-width="1"/>
	<path d="M 48.0,100.0 L 84.0,100.0" fill="none" stroke="black" stroke-width="1"/>
	<path d="M 86.0,100.0 L 101.0,100.0" fill="none" stroke="black" stroke-width="1"/>
	<path d="M 0.0,101.0 L 22.0,101.0" fill="none" stroke="black" stroke-width="1"/>
	<path d="M 38.0,101.0 L 85.0,101.0" fill="none" stroke="black" stroke-width="1"/>
	<path d="M 86.0,101.0 L 101.0,101.0" fill="none" stroke="black" stroke-width="1"/>
	<path d="M 0.0,102.0 L 23.0,102.0" fill="none" stroke="black" stroke-width="1"/>
	<path d="M 38.0,102.0 L 84.0,102.0" fill="none" stroke="black" stroke-width="1"/>
	<path d="M 86.0,102.0 L 101.0,102.0" fill="none" stroke="black" stroke-width="1"/>
	<path d="M 0.0,103.0 L 23.0,103.0" fill="none" stroke="black" stroke-width="1"/>
	<path d="M 39.0,103.0 L 84.0,103.0" fill="none" stroke="black" stroke-width="1"/>
	<path d="M 86.0,103.0 L 101.0,103.0" fill="none" stroke="black" stroke-width="1"/>
	<path d="M 0.0,104.0 L 23.0,104.0" fill="none" stroke="black" stroke-width="1"/>
	<path d="M 40.0,104.0 L 84.0,104.0" fill="none" stroke="black" stroke-width="1"/>
	<path d="M 86.0,104.0 L 101.0,104.0" fill="none" stroke="black" stroke-width="1"/>
	<path d="M 0.0,105.0 L 23.0,105.0" fill="none" stroke="black" stroke-width="1"/>
	<path d="M 42.0,105.0 L 85.0,105.0" fill="none" stroke="black" stroke-width="1"/>
	<path d="M 86.0,105.0 L 101.0,105.0" fill="none" stroke="black" stroke-width="1"/>
	<path d="M 0.0,106.0 L 23.0,106.0" fill="none" stroke="black" stroke-width="1"/>
	<path d="M 43.0,106.0 L 85.0,106.0" fill="none" stroke="black" stroke-width="1"/>
	<path d="M 86.0,106.0 L 101.0,106.0" fill="none" stroke="black" stroke-width="1"/>
	<path d="M 0.0,107.0 L 25.0,107.0" fill="none" stroke="black" stroke-width="1"/>
	<path d="M 43.0,107.0 L 44.0,107.0" fill="none" stroke="black" stroke-width="1"/>
	<path d="M 46.0,107.0 L 85.0,107.0" fill="none" stroke="black" stroke-width="1"/>
	<path d="M 86.0,107.0 L 101.0,107.0" fill="none" stroke="black" stroke-width="1"/>
	<path d="M 0.0,108.0 L 25.0,108.0" fill="none" stroke="black" stroke-width="1"/>
	<path d="M 44.0,108.0 L 45.0,108.0" fill="none" stroke="black" stroke-width="1"/>
	<path d="M 46.0,108.0 L 50.0,108.0" fill="none" stroke="black" stroke-width="1"/>
	<path d="M 52.0,108.0 L 101.0,108.0" fill="none" stroke="black" stroke-width="1"/>
	<path d="M 0.0,109.0 L 25.0,109.0" fill="none" stroke="black" stroke-width="1"/>
	<path d="M 42.0,109.0 L 45.0,109.0" fill="none" stroke="black" stroke-width="1"/>
	<path d="M 47.0,109.0 L 50.0,109.0" fill="none" stroke="black" stroke-width="1"/>
	<path d="M 52.0,109.0 L 84.0,109.0" fill="none" stroke="black" stroke-width="1"/>
	<path d="M 85.0,109.0 L 101.0,109.0" fill="none" stroke="black" stroke-width="1"/>
	<path d="M 0.0,110.0 L 26.0,110.0" fill="none" stroke="black" stroke-width="1"/>
	<path d="M 40.0,110.0 L 41.0,110.0" fill="none" stroke="black" stroke-width="1"/>
	<path d="M 42.0,110.0 L 48.0,110.0" fill="none" stroke="black" stroke-width="1"/>
	<path d="M 52.0,110.0 L 101.0,110.0" fill="none" stroke="black" stroke-width="1"/>
	<path d="M 0.0,111.0 L 27.0,111.0" fill="none" stroke="black" stroke-width="1"/>
	<path d="M 38.0,111.0 L 43.0,111.0" fill="none" stroke="black" stroke-width="1"/>
	<path d="M 47.0,111.0 L 48.0,111.0" fill="none" stroke="black" stroke-width="1"/>
	<path d="M 50.0,111.0 L 84.0,111.0" fill="none" stroke="black" stroke-width="1"/>
	<path d="M 85.0,111.0 L 101.0,111.0" fill="none" stroke="black" stroke-width="1"/>
	<path d="M 0.0,112.0 L 28.0,112.0" fill="none" stroke="black" stroke-width="1"/>
	<path d="M 32.0,112.0 L 33.0,112.0" fill="none" stroke="black" stroke-width="1"/>
	<path d="M 34.0,112.0 L 44.0,112.0" fill="none" stroke="black" stroke-width="1"/>
	<path d="M 50.0,112.0 L 51.0,112.0" fill="none" stroke="black" stroke-width="1"/>
	<path d="M 52.0,112.0 L 84.0,112.0" fill="none" stroke="black" stroke-width="1"/>
	<path d="M 85.0,112.0 L 101.0,112.0" fill="none" stroke="black" stroke-width="1"/>
	<path d="M 0.0,113.0 L 28.0,113.0" fill="none" stroke="black" stroke-width="1"/>
	<path d="M 31.0,113.0 L 32.0,113.0" fill="none" stroke="black" stroke-width="1"/>
	<path d="M 34.0,113.0 L 44.0,113.0" fill="none" stroke="black" stroke-width="1"/>
	<path d="M 45.0,113.0 L 47.0,113.0" fill="none" stroke="black" stroke-width="1"/>
	<path d="M 48.0,113.0 L 49.0,113.0" fill="none" stroke="black" stroke-width="1"/>
	<path d="M 50.0,113.0 L 101.0,113.0" fill="none" stroke="black" stroke-width="1"/>
	<path d="M 0.0,114.0 L 30.0,114.0" fill="none" stroke="black" stroke-width="1"/>
	<path d="M 32.0,114.0 L 101.0,114.0" fill="none" stroke="black" stroke-width="1"/>
	<path d="M 0.0,115.0 L 29.0,115.0" fill="none" stroke="black" stroke-width="1"/>
	<path d="M 32.0,115.0 L 84.0,115.0" fill="none" stroke="black" stroke-width="1"/>
	<path d="M 85.0,115.0 L 101.0,115.0" fill="none" stroke="black" stroke-width="1"/>
	<path d="M 0.0,116.0 L 30.0,116.0" fill="none" stroke="black" stroke-width="1"/>
	<path d="M 32.0,116.0 L 101.0,116.0" fill="none" stroke="black" stroke-width="1"/>
	<path d="M 0.0,117.0 L 30.0,117.0" fill="none" stroke="black" stroke-width="1"/>
	<path d="M 31.0,117.0 L 101.0,117.0" fill="none" stroke="black" stroke-width="1"/>
	<path d="M 0.0,118.0 L 30.0,118.0" fill="none" stroke="black" stroke-width="1"/>
	<path d="M 32.0,118.0 L 35.0,118.0" fill="none" stroke="black" stroke-width="1"/>
	<path d="M 36.0,118.0 L 52.0,118.0" fill="none" stroke="black" stroke-width="1"/>
	<path d="M 53.0,118.0 L 101.0,118.0" fill="none" stroke="black" stroke-width="1"/>
	<path d="M 0.0,119.0 L 30.0,119.0" fill="none" stroke="black" stroke-width="1"/>
	<path d="M 37.0,119.0 L 44.0,119.0" fill="none" stroke="black" stroke-width="1"/>
	<path d="M 47.0,119.0 L 50.0,119.0" fill="none" stroke="black" stroke-width="1"/>
	<path d="M 52.0,119.0 L 101.0,119.0" fill="none" stroke="black" stroke-width="1"/>
	<path d="M 0.0,120.0 L 31.0,120.0" fill="none" stroke="black" stroke-width="1"/>
	<path d="M 38.0,120.0 L 40.0,120.0" fill="none" stroke="black" stroke-width="1"/>
	<path d="M 42.0,120.0 L 101.0,120.0" fill="none" stroke="black" stroke-width="1"/>
	<path d="M 0.0,121.0 L 31.0,121.0" fill="none" stroke="black" stroke-width="1"/>
	<path d="M 46.0,121.0 L 101.0,121.0" fill="none" stroke="black" stroke-width="1"/>
	<path d="M 0.0,122.0 L 31.0,122.0" fill="none" stroke="black" stroke-width="1"/>
	<path d="M 47.0,122.0 L 48.0,122.0" fill="none" stroke="black" stroke-width="1"/>
	<path d="M 49.0,122.0 L 85.0,122.0" fill="none" stroke="black" stroke-width="1"/>
	<path d="M 86.0,122.0 L 101.0,122.0" fill="none" stroke="black" stroke-width="1"/>
	<path d="M 0.0,123.0 L 33.0,123.0" fill="none" stroke="black" stroke-width="1"/>
	<path d="M 46.0,123.0 L 101.0,123.0" fill="none" stroke="black" stroke-width="1"/>
	<path d="M 0.0,124.0 L 32.0,124.0" fill="none" stroke="black" stroke-width="1"/>
	<path d="M 37.0,124.0 L 39.0,124.0" fill="none" stroke="black" stroke-width="1"/>
	<path d="M 45.0,124.0 L 46.0,124.0" fill="none" stroke="black" stroke-width="1"/>
	<path d="M 47.0,124.0 L 84.0,124.0" fill="none" stroke="black" stroke-width="1"/>
	<path d="M 85.0,124.0 L 101.0,124.0" fill="none" stroke="black" stroke-width="1"/>
	<path d="M 0.0,125.0 L 32.0,125.0" fill="none" stroke="black" stroke-width="1"/>
	<path d="M 39.0,125.0 L 85.0,125.0" fill="none" stroke="black" stroke-width="1"/>
	<path d="M 86.0,125.0 L 101.0,125.0" fill="none" stroke="black" stroke-width="1"/>
	<path d="M 0.0,126.0 L 33.0,126.0" fill="none" stroke="black" stroke-width="1"/>
	<path d="M 36.0,126.0 L 37.0,126.0" fill="none" stroke="black" stroke-width="1"/>
	<path d="M 39.0,126.0 L 43.0,126.0" fill="none" stroke="black" stroke-width="1"/>
	<path d="M 46.0,126.0 L 86.0,126.0" fill="none" stroke="black" stroke-width="1"/>
	<path d="M 87.0,126.0 L 101.0,126.0" fill="none" stroke="black" stroke-width="1"/>
	<path d="M 0.0,127.0 L 35.0,127.0" fill="none" stroke="black" stroke-width="1"/>
	<path d="M 40.0,127.0 L 88.0,127.0" fill="none" stroke="black" stroke-width="1"/>
	<path d="M 89.0,127.0 L 101.0,127.0" fill="none" stroke="black" stroke-width="1"/>
	<path d="M 0.0,128.0 L 36.0,128.0" fill="none" stroke="black" stroke-width="1"/>
	<path d="M 38.0,128.0 L 85.0,128.0" fill="none" stroke="black" stroke-width="1"/>
	<path d="M 86.0,128.0 L 101.0,128.0" fill="none" stroke="black" stroke-width="1"/>
	<path d="M 0.0,129.0 L 42.0,129.0" fill="none" stroke="black" stroke-width="1"/>
	<path d="M 44.0,129.0 L 46.0,129.0" fill="none" stroke="black" stroke-width="1"/>
	<path d="M 53.0,129.0 L 85.0,129.0" fill="none" stroke="black" stroke-width="1"/>
	<path d="M 86.0,129.0 L 101.0,129.0" fill="none" stroke="black" stroke-width="1"/>
	<path d="M 0.0,130.0 L 39.0,130.0" fill="none" stroke="black" stroke-width="1"/>
	<path d="M 55.0,130.0 L 101.0,130.0" fill="none" stroke="black" stroke-width="1"/>
	<path d="M 0.0,131.0 L 40.0,131.0" fill="none" stroke="black" stroke-width="1"/>
	<path d="M 53.0,131.0 L 54.0,131.0" fill="none" stroke="black" stroke-width="1"/>
	<path d="M 55.0,131.0 L 101.0,131.0" fill="none" stroke="black" stroke-width="1"/>
	<path d="M 0.0,132.0 L 42.0,132.0" fill="none" stroke="black" stroke-width="1"/>
	<path d="M 54.0,132.0 L 101.0,132.0" fill="none" stroke="black" stroke-width="1"/>
	<path d="M 0.0,133.0 L 40.0,133.0" fill="none" stroke="black" stroke-width="1"/>
	<path d="M 42.0,133.0 L 43.0,133.0" fill="none" stroke="black" stroke-width="1"/>
	<path d="M 54.0,133.0 L 101.0,133.0" fill="none" stroke="black" stroke-width="1"/>
	<path d="M 0.0,134.0 L 40.0,134.0" fill="none" stroke="black" stroke-width="1"/>
	<path d="M 42.0,134.0 L 44.0,134.0" fill="none" stroke="black" stroke-width="1"/>
	<path d="M 54.0,134.0 L 101.0,134.0" fill="none" stroke="black" stroke-width="1"/>
	<path d="M 0.0,135.0 L 42.0,135.0" fill="none" stroke="black" stroke-width="1"/>
	<path d="M 49.0,135.0 L 101.0,135.0" fill="none" stroke="black" stroke-width="1"/>
	<path d="M 0.0,136.0 L 43.0,136.0" fill="none" stroke="black" stroke-width="1"/>
	<path d="M 48.0,136.0 L 101.0,136.0" fill="none" stroke="black" stroke-width="1"/>
	<path d="M 0.0,137.0 L 101.0,137.0" fill="none" stroke="black" stroke-width="1"/>
	<path d="M 0.0,138.0 L 101.0,138.0" fill="none" stroke="black" stroke-width="1"/>
	<path d="M 0.0,139.0 L 101.0,139.0" fill="none" stroke="black" stroke-width="1"/>
	<path d="M 0.0,140.0 L 101.0,140.0" fill="none" stroke="black" stroke-width="1"/>
	<path d="M 0.0,141.0 L 101.0,141.0" fill="none" stroke="black" stroke-width="1"/>
	<path d="M 0.0,142.0 L 101.0,142.0" fill="none" stroke="black" stroke-width="1"/>
	<path d="M 0.0,143.0 L 101.0,143.0" fill="none" stroke="black" stroke-width="1"/>
</svg>
